<?xml version="1.0" encoding="UTF-8" standalone="no"?>
<svg
   xmlns:dc="http://purl.org/dc/elements/1.1/"
   xmlns:cc="http://creativecommons.org/ns#"
   xmlns:rdf="http://www.w3.org/1999/02/22-rdf-syntax-ns#"
   xmlns:svg="http://www.w3.org/2000/svg"
   xmlns="http://www.w3.org/2000/svg"
   xmlns:sodipodi="http://sodipodi.sourceforge.net/DTD/sodipodi-0.dtd"
   xmlns:inkscape="http://www.inkscape.org/namespaces/inkscape"
   width="248.90504mm"
   height="235.91463mm"
   viewBox="0 0 248.90504 235.91463"
   version="1.1"
   id="svg8"
   inkscape:version="0.92.3 (2405546, 2018-03-11)"
   sodipodi:docname="logo3.svg">
  <defs
     id="defs2" />
  <sodipodi:namedview
     id="base"
     pagecolor="#ffffff"
     bordercolor="#666666"
     borderopacity="1.0"
     inkscape:pageopacity="0.0"
     inkscape:pageshadow="2"
     inkscape:zoom="0.7"
     inkscape:cx="299.11701"
     inkscape:cy="363.67301"
     inkscape:document-units="mm"
     inkscape:current-layer="layer1"
     showgrid="false"
     inkscape:window-width="1853"
     inkscape:window-height="1018"
     inkscape:window-x="67"
     inkscape:window-y="34"
     inkscape:window-maximized="1"
     inkscape:document-rotation="0" />
  <metadata
     id="metadata5">
    <rdf:RDF>
      <cc:Work
         rdf:about="">
        <dc:format>image/svg+xml</dc:format>
        <dc:type
           rdf:resource="http://purl.org/dc/dcmitype/StillImage" />
        <dc:title />
      </cc:Work>
    </rdf:RDF>
  </metadata>
  <g
     inkscape:label="Layer 1"
     inkscape:groupmode="layer"
     id="layer1"
     transform="translate(39.572942,-9.3862274)">
    <rect
       id="rect12"
       width="134.55952"
       height="170.08928"
       x="102.21587"
       y="8.3281355"
       style="fill:#ff6e24;stroke-width:0.26458332;fill-opacity:1;opacity:0.99999999"
       ry="26.080359"
       transform="rotate(21.6)" />
    <rect
       id="rect12-3"
       width="134.55952"
       height="170.08928"
       x="-53.802879"
       y="25.301605"
       style="fill:#ffa042;stroke-width:0.26458332;fill-opacity:1"
       ry="26.080359"
       transform="rotate(-15)" />
    <rect
       id="rect12-3-6"
       width="113.77084"
       height="146.93506"
       x="-43.515667"
       y="36.548382"
       style="fill:#ffffff;stroke-width:0.22612311"
       ry="22.530045"
       transform="rotate(-15)" />
    <g
       id="g3828"
       transform="matrix(0.25556787,-0.06847921,0.06847921,0.25556787,-32.91314,59.338236)">
      <g
         id="g3765">
        <g
           id="g968">
          <path
             id="path3749"
             d="m 405.432,297.895 -92.808,-80.171 -5.254,-33.313 27.495,0 c 3.037,0 5.5,-2.462 5.5,-5.5 0,-18.081 -4.385,-35.895 -12.697,-51.818 l 77.765,-67.177 c 1.156,-0.999 1.845,-2.435 1.9,-3.961 0.056,-1.527 -0.526,-3.009 -1.607,-4.09 L 355.471,1.611 c -1.08,-1.081 -2.561,-1.663 -4.089,-1.607 -1.527,0.056 -2.963,0.745 -3.962,1.901 L 280.245,79.668 C 264.33,71.355 246.519,66.97 228.435,66.97 c -18.08,0 -35.895,4.385 -51.818,12.698 L 109.441,1.905 c -0.999,-1.157 -2.435,-1.845 -3.961,-1.901 -1.539,-0.057 -3.009,0.527 -4.09,1.607 L 51.136,51.865 c -1.081,1.081 -1.663,2.563 -1.607,4.09 0.056,1.527 0.745,2.962 1.901,3.961 l 77.764,67.176 c -8.314,15.923 -12.699,33.738 -12.699,51.818 0,3.038 2.462,5.5 5.5,5.5 h 27.494 l -5.255,33.317 -92.804,80.168 c -1.157,0.999 -1.845,2.434 -1.901,3.961 -0.056,1.527 0.527,3.009 1.607,4.09 L 101.39,356.2 c 1.033,1.033 2.433,1.611 3.889,1.611 0.066,0 0.133,-10e-4 0.201,-0.003 1.527,-0.056 2.962,-0.745 3.961,-1.901 l 15.895,-18.401 -17.834,112.997 c -0.251,1.589 0.207,3.208 1.251,4.431 1.045,1.223 2.573,1.927 4.181,1.927 h 231 c 1.608,0 3.137,-0.704 4.182,-1.927 1.045,-1.223 1.502,-2.842 1.251,-4.431 l -17.834,-112.988 15.887,18.391 c 0.999,1.157 2.435,1.845 3.962,1.901 0.066,0.002 0.134,0.003 0.2,0.003 1.456,0 2.855,-0.578 3.889,-1.611 l 50.254,-50.254 c 1.081,-1.081 1.663,-2.563 1.607,-4.09 -0.056,-1.527 -0.744,-2.961 -1.9,-3.96 z m -105.7,-91.308 -20.844,-18.006 c -2.182,-1.884 -5.447,-1.765 -7.484,0.273 l -12.623,12.623 -12.43,-12.429 c 0.822,-1.447 1.466,-3.002 1.921,-4.638 h 47.963 z m -80.911,-27.681 c 0,-5.299 4.311,-9.61 9.61,-9.61 5.299,0 9.609,4.311 9.609,9.61 0,5.299 -4.311,9.609 -9.609,9.609 -5.298,0 -9.61,-4.31 -9.61,-9.609 z m 110.394,-5.496 h -80.941 c -0.455,-1.64 -1.1,-3.198 -1.924,-4.647 l 12.43,-12.429 12.624,12.624 c 1.069,1.07 2.478,1.611 3.89,1.611 1.277,0 2.559,-0.443 3.595,-1.338 l 40.203,-34.729 c 5.93,12.118 9.386,25.371 10.123,38.908 z M 275.565,157.564 249.772,131.77 376.713,38.409 393.764,55.46 Z m 76.312,-143.991 17.058,17.058 7.778,7.778 -126.941,93.361 z M 228.435,77.97 c 15.439,0 30.658,3.535 44.407,10.269 l -34.736,40.21 c -1.884,2.181 -1.765,5.446 0.273,7.484 l 12.623,12.623 -12.43,12.429 c -2.998,-1.703 -6.454,-2.689 -10.141,-2.689 -3.688,0 -7.144,0.986 -10.142,2.69 l -12.429,-12.429 12.623,-12.623 c 2.038,-2.038 2.157,-5.304 0.273,-7.484 L 184.021,88.24 c 13.756,-6.735 28.977,-10.27 44.414,-10.27 z M 104.984,13.573 207.089,131.77 198.081,140.778 87.93,30.627 Z m -17.054,17.054 110.151,110.151 -7.778,7.779 -9.008,9.008 L 63.098,55.459 Z m 49.839,103.873 40.205,34.73 c 1.036,0.895 2.316,1.338 3.594,1.338 1.412,0 2.82,-0.541 3.89,-1.611 l 12.623,-12.623 12.429,12.429 c -0.823,1.449 -1.468,3.007 -1.923,4.646 h -80.943 c 0.737,-13.537 4.193,-26.79 10.125,-38.909 z m 22.855,49.91 h 47.965 c 0.455,1.636 1.098,3.191 1.92,4.637 l -12.429,12.429 -12.622,-12.622 c -2.039,-2.037 -5.304,-2.157 -7.484,-0.273 l -20.848,18.009 z m 20.671,15.837 9.007,9.007 7.778,7.779 -134.982,85.319 z m -76.311,143.991 -41.886,-41.886 134.982,-85.319 9.008,9.008 z m 103.951,101.622 0,-47.5 c 0,-10.752 8.748,-19.5 19.5,-19.5 10.752,0 19.5,8.748 19.5,19.5 v 47.5 z m 128.563,0 h -78.563 l 0,-47.5 c 0,-16.818 -13.683,-30.5 -30.5,-30.5 -16.818,0 -30.5,13.682 -30.5,30.5 l 0,47.5 h -78.564 l 19.591,-124.128 79.794,-92.37 c 1.884,-2.181 1.765,-5.446 -0.273,-7.484 l -12.624,-12.624 12.429,-12.429 c 2.998,1.704 6.455,2.69 10.143,2.69 3.688,0 7.144,-0.986 10.142,-2.689 l 12.43,12.429 -12.623,12.623 c -2.038,2.038 -2.157,5.304 -0.273,7.484 l 79.802,92.38 z m 14.379,-101.622 -102.105,-118.197 126.942,93.36 -7.779,7.779 z m 24.837,-24.837 -126.942,-93.36 25.793,-25.793 118.198,102.104 z"
             inkscape:connector-curvature="0"
             sodipodi:nodetypes="cccsscccccsccsccccssccsscccscsscccccsssccccscsscccccccccssssscccccscccccccccccccsccsccsccsccscccccccccccccssccccccccccccccccccccccccsssccccsssccccsccsccsccccccccccccc" />
        </g>
        <path
           id="path3751"
           d="m 161.604,403.36 c 0,-3.038 -2.462,-5.5 -5.5,-5.5 h -19 c -3.038,0 -5.5,2.462 -5.5,5.5 0,3.038 2.462,5.5 5.5,5.5 h 19 c 3.038,0 5.5,-2.462 5.5,-5.5 z"
           inkscape:connector-curvature="0" />
        <path
           id="path3753"
           d="m 170.104,414.86 h -19 c -3.038,0 -5.5,2.462 -5.5,5.5 0,3.038 2.462,5.5 5.5,5.5 h 19 c 3.038,0 5.5,-2.462 5.5,-5.5 0,-3.038 -2.462,-5.5 -5.5,-5.5 z"
           inkscape:connector-curvature="0" />
        <path
           id="path3755"
           d="m 266.104,359.86 h 19 c 3.037,0 5.5,-2.462 5.5,-5.5 0,-3.038 -2.463,-5.5 -5.5,-5.5 h -19 c -3.037,0 -5.5,2.462 -5.5,5.5 0,3.038 2.463,5.5 5.5,5.5 z"
           inkscape:connector-curvature="0" />
        <path
           id="path3757"
           d="m 310.104,410.86 h 7 c 3.037,0 5.5,-2.462 5.5,-5.5 0,-3.038 -2.463,-5.5 -5.5,-5.5 h -7 c -3.037,0 -5.5,2.462 -5.5,5.5 0,3.038 2.463,5.5 5.5,5.5 z"
           inkscape:connector-curvature="0" />
        <path
           id="path3759"
           d="m 147.104,344.86 h 7 c 3.038,0 5.5,-2.462 5.5,-5.5 0,-3.038 -2.462,-5.5 -5.5,-5.5 h -7 c -3.038,0 -5.5,2.462 -5.5,5.5 0,3.038 2.463,5.5 5.5,5.5 z"
           inkscape:connector-curvature="0" />
        <path
           id="path3761"
           d="m 219.604,289.36 c 0,-3.038 -2.462,-5.5 -5.5,-5.5 h -19 c -3.038,0 -5.5,2.462 -5.5,5.5 0,3.038 2.462,5.5 5.5,5.5 h 19 c 3.038,0 5.5,-2.462 5.5,-5.5 z"
           inkscape:connector-curvature="0" />
        <path
           id="path3763"
           d="m 227.104,302.86 h -19 c -3.038,0 -5.5,2.462 -5.5,5.5 0,3.038 2.462,5.5 5.5,5.5 h 19 c 3.037,0 5.5,-2.462 5.5,-5.5 0,-3.038 -2.462,-5.5 -5.5,-5.5 z"
           inkscape:connector-curvature="0" />
      </g>
      <g
         id="g3767" />
      <g
         id="g3769" />
      <g
         id="g3771" />
      <g
         id="g3773" />
      <g
         id="g3775" />
      <g
         id="g3777" />
      <g
         id="g3779" />
      <g
         id="g3781" />
      <g
         id="g3783" />
      <g
         id="g3785" />
      <g
         id="g3787" />
      <g
         id="g3789" />
      <g
         id="g3791" />
      <g
         id="g3793" />
      <g
         id="g3795" />
    </g>
    <path
       style="fill:#ffa042;fill-opacity:1;stroke:#000000;stroke-width:0.444669;stroke-linecap:butt;stroke-linejoin:miter;stroke-miterlimit:4;stroke-dasharray:0, 4.89135999999999971;stroke-dashoffset:0;stroke-opacity:1"
       d="M -4.2591665,186.29128 -7.0669919,220.67492 27.328842,185.14516 Z"
       id="path965" />
  </g>
</svg>
